<?xml version="1.0" encoding="UTF-8"?>
<svg viewBox="0 0 630 600" xmlns="http://www.w3.org/2000/svg">
  <!-- Styles -->
  <style>
    .tank-outline { fill: none; stroke: #666; stroke-width: 3; }
    .tank-water { fill: #09C; }
    .base { fill: none; stroke: #888; stroke-width: 8; }
    .wire-red { fill: none; stroke: red; stroke-width: 3; }
    .wire-green { fill: none; stroke: green; stroke-width: 3; }
    .float-switch { fill: #FF7700; stroke: #000; stroke-width: 1; }
    .float-switch-top { fill: #FFCC00; stroke: #000; stroke-width: 1; }
    .wpcz1 { fill: #FFF; stroke: #000; stroke-width: 1; }
    .wpcz1-button-text { font-family: Arial; font-size: 14px; text-anchor: middle; }
    .wpcz1-text { font-family: Arial; font-size: 20px; text-anchor: middle; }
    .pump { fill: #09C; stroke: #000; stroke-width: 2; }
    .pump-label { font-family: Arial; font-size: 40px; text-anchor: middle; }
    .water-drop { fill: #09C; stroke: #000; }
    
    @keyframes flow-water-vertical {
      0% { opacity: 1; transform: translateY(0); }
      100% { opacity: 1; transform: translateY(-20px); }
    }
    
    @keyframes flow-water-vertical1 {
      0% { opacity: 1; transform: translateY(0); }
      100% { opacity: 1; transform: translateY(20px); }
    }
    
    @keyframes flow-water-horizontal {
      0% { opacity: 1; transform: translateX(0); }
      100% { opacity: 1; transform: translateX(-20px); }
    }
    
    @keyframes blink-yellow {
      0%, 49%, 100% { opacity: 0; }
      50%, 99% { opacity: 1; }
    }
    
    @keyframes water-level {
      0%, 100% { height: 200px; y: 250px; }
      50% { height: 300px; y: 150px; }
    }
    
    @keyframes float-switch-move {
      0%, 100% { transform: translateY(0); }
      50% { transform: translateY(-100px); }
    }
    
    .water-level-change { animation: water-level 15s infinite ease-in-out; }
    .float-switches { animation: float-switch-move 15s infinite ease-in-out; }
    .active-light { animation: blink-yellow 1s infinite; }

    /* Water drops are only visible during the first half of the animation cycle */
    .water-flowing-vertical { 
      animation: flow-water-vertical 0.8s infinite linear; 
      opacity: 0;
    }
    .water-flowing-vertical1 { 
      animation: flow-water-vertical1 0.8s infinite linear; 
      opacity: 0;
    }
    .water-flowing-horizontal { 
      animation: flow-water-horizontal 0.8s infinite linear; 
      opacity: 0;
    }
    
    /* Show drops in the first ~45% of the water level cycle */
    @keyframes show-drops {
      0%, 45%, 100% { opacity: 1; }
      46%, 99% { opacity: 0; }
    }
    
    .drops-control {
      animation: show-drops 15s infinite ease-in-out;
    }
    
    /* ON text color animation */
    @keyframes on-text-active {
      0%, 45% { fill: white; font-weight: bold; }
      46%, 100% { fill: #555555; font-weight: normal; }
    }
    
    /* OFF text color animation */
    @keyframes off-text-active {
      0%, 45% { fill: #555555; font-weight: normal; }
      46%, 100% { fill: white; font-weight: bold; }
    }
    
    .on-text {
      animation: on-text-active 15s infinite ease-in-out;
    }
    
    .off-text {
      animation: off-text-active 15s infinite ease-in-out;
    }
  </style>
  
  <!-- Background -->
  <rect x="0" y="0" width="630" height="600" fill="#f9f9f9"/>

  <!-- Water drops with controlled visibility -->
  <g class="drops-control">
    <!-- Water drops -->
    <g class="water-flowing-vertical1">
      <circle cx="260" cy="140" r="5" class="water-drop"/>
      <circle cx="260" cy="160" r="5" class="water-drop"/>
      <circle cx="260" cy="180" r="5" class="water-drop"/>
      <circle cx="260" cy="200" r="5" class="water-drop"/>
      <circle cx="260" cy="220" r="5" class="water-drop"/>
      <circle cx="260" cy="240" r="5" class="water-drop"/>
    </g>
  </g>
  
  <!-- Water tank -->
  <rect x="100" y="250" width="200" height="200" class="tank-water water-level-change"/>
  <rect x="100" y="120" width="200" height="330" class="tank-outline" rx="10" ry="10"/>

  <rect x="420" y="480" width="100" height="100" fill="#09C" rx="10" ry="10"/>
  
  <!-- Base -->
  <path d="M 50 450 H 460" class="base"/>
  <path d="M 480 450 H 600" class="base"/>
  
  <!-- WPCZ1 -->
  <rect x="510" y="180" width="80" height="140" class="wpcz1"/>
  <rect x="520" y="225" width="60" height="30" fill="#09C"/>
  <rect x="520" y="270" width="60" height="30" fill="#09C"/>
  <!-- ON text with color animation -->
  <text x="550" y="245" class="wpcz1-button-text on-text">ON</text>
  <!-- OFF text with color animation -->
  <text x="550" y="290" class="wpcz1-button-text off-text">OFF</text>
  <text x="550" y="345" class="wpcz1-text">WPCZ1</text>
  
  <!-- Wires -->
  <path d="M 260 150 V 80 H 400 V 390" class="wire-green"/>
  <path d="M 430 420 H 470 V 560" class="wire-green"/>
  <path d="M 160 300 H 160 V 30 H 550 V 180" class="wire-red"/>
  <path d="M 510 265 H 460 L 420 400" class="wire-red"/>
  
  <!-- Float switches -->
  <g class="float-switches">
    <path d="M 160 400 V 250" class="wire-red"/>
    <rect x="150" y="240" width="20" height="40" class="float-switch-top"/>
    <rect x="150" y="380" width="20" height="40" class="float-switch"/>
  </g>
  
  <!-- Pump and housing -->
  <circle cx="400" cy="415" r="30" class="pump"/>
  <text x="400" y="430" class="pump-label">P</text>

  <!-- Water drops with controlled visibility -->
  <g class="drops-control">
    <!-- Water drops -->
    <g class="water-flowing-vertical">
      <circle cx="470" cy="440" r="5" class="water-drop"/>
      <circle cx="470" cy="460" r="5" class="water-drop"/>
      <circle cx="470" cy="480" r="5" class="water-drop"/>
      <circle cx="400" cy="380" r="5" class="water-drop"/>
      <circle cx="400" cy="360" r="5" class="water-drop"/>
      <circle cx="400" cy="340" r="5" class="water-drop"/>
      <circle cx="400" cy="320" r="5" class="water-drop"/>
      <circle cx="400" cy="300" r="5" class="water-drop"/>
      <circle cx="400" cy="280" r="5" class="water-drop"/>
      <circle cx="400" cy="260" r="5" class="water-drop"/>
      <circle cx="400" cy="240" r="5" class="water-drop"/>
      <circle cx="400" cy="220" r="5" class="water-drop"/>
      <circle cx="400" cy="200" r="5" class="water-drop"/>
      <circle cx="400" cy="180" r="5" class="water-drop"/>
      <circle cx="400" cy="160" r="5" class="water-drop"/>
      <circle cx="400" cy="140" r="5" class="water-drop"/>
      <circle cx="400" cy="120" r="5" class="water-drop"/>
      <circle cx="400" cy="100" r="5" class="water-drop"/>
    </g>
    <g class="water-flowing-horizontal">
      <circle cx="450" cy="420" r="5" class="water-drop"/>
      <circle cx="470" cy="420" r="5" class="water-drop"/>
      <circle cx="400" cy="80" r="5" class="water-drop"/>
      <circle cx="380" cy="80" r="5" class="water-drop"/>
      <circle cx="360" cy="80" r="5" class="water-drop"/>
      <circle cx="340" cy="80" r="5" class="water-drop"/>
      <circle cx="320" cy="80" r="5" class="water-drop"/>
      <circle cx="300" cy="80" r="5" class="water-drop"/>
      <circle cx="280" cy="80" r="5" class="water-drop"/>
    </g>
    <g class="water-flowing-vertical1">
      <circle cx="260" cy="80" r="5" class="water-drop"/>
      <circle cx="260" cy="100" r="5" class="water-drop"/>
      <circle cx="260" cy="120" r="5" class="water-drop"/>
    </g>
  </g>

  <!-- Logo -->
  <g transform="translate(100,470)">
    <path
      style="fill:#823185"
      d="m 95.470703,36.918013 c 2.656982,2.046103 7.471347,3.069154 14.443087,3.069154 2.83864,0 5.99855,-1.599049 8.74637,-3.041814 m 21.2832,-16.531247 c -2.31178,-0.03215 -4.59001,0.172395 -6.86719,0.607422 -7.27349,1.38951 -21.27256,7.143413 -34.078123,14.00586 l -3.527344,1.890625 11.593747,0.01367 11.59571,0.01367 4.08203,-1.851562 c 5.76897,-2.618765 11.81956,-4.419982 15.75586,-4.689453 4.40628,-0.301646 6.97156,1.909736 13.5895,4.418806 5.05212,1.91542 15.32838,2.78872 17.25855,3.267245 2.47134,0.612691 5.12875,1.953297 5.12875,1.953297 5.06578,1.241786 4.45713,0.401571 4.45713,-0.427679 0,-2.873905 -10.38925,-9.112385 -16.33237,-12.311278 -8.47739,-4.562962 -15.72092,-6.794171 -22.65625,-6.890626 z m -1.09766,7.09375 c 4.07595,0 8.32939,1.239694 12.75977,3.720704 -3.86329,-1.16962 -7.56703,-1.753907 -11.11133,-1.753907 -2.16203,0 -4.23496,0.407085 -7.30078,1.390625 -3.06584,0.98354 -2.03811,-0.539364 0.0176,-1.708984 1.66582,-1.09873 3.54363,-1.648438 5.63476,-1.648438 z m 47.03858,60.156397 c 0.99241,0 1.48861,0.283544 1.48861,0.850633 0,1.524051 -1.34684,2.977215 -4.04051,4.359493 -2.37468,1.240506 -4.39493,1.860759 -6.06076,1.860759 -0.81519,0 -1.57721,-0.106329 -2.28607,-0.318987 -3.65063,-0.956962 -6.13165,-8.258227 -7.44304,-21.903794 -5.77721,13.858225 -11.25316,20.716452 -16.42785,20.57468 h -0.21265 c -4.21773,-0.141772 -7.1595,-0.673417 -8.82532,-1.594936 -1.94937,-1.240506 -3.36709,-3.721518 -4.25316,-7.443037 -0.42532,-1.878481 -0.63798,-4.040506 -0.63798,-6.486075 0,-5.103797 0.83291,-10.810125 2.49874,-17.118985 2.09113,-7.620252 4.67847,-12.475947 7.76202,-14.567086 2.65823,-1.913924 6.16709,-2.870886 10.52658,-2.870886 1.38228,0 3.49114,0.265823 6.32658,0.797468 3.54431,0.567089 5.31646,1.222785 5.31646,1.967088 0,0.07089 -0.10633,0.141773 -0.31899,0.212659 -4.28861,1.382278 -8.13418,5.192404 -11.53671,11.430378 -3.11899,5.706328 -4.67848,11.005061 -4.67848,15.8962 0,1.524051 0.28355,3.048101 0.85064,4.572151 0.7443,1.949367 1.7367,2.92405 2.97721,2.92405 2.44557,0 5.3519,-5.511391 8.71899,-16.534174 0.42531,-1.098734 0.88607,-2.622785 1.38227,-4.572152 -0.0709,-1.52405 0.14178,-3.668353 0.63798,-6.43291 1.84304,-4.359493 5.33418,-6.53924 10.47342,-6.53924 1.31139,0 2.35695,0.141772 3.1367,0.425317 0.81519,0.283544 1.29368,4.270885 1.43545,11.962023 0.0709,4.501265 0.14177,9.037974 0.21265,13.610125 0,2.551898 0.2481,6.291138 0.74431,11.21772 0.53165,2.481012 1.27595,3.721518 2.23291,3.721518 z m -36.41772,-14.14177 c 0,2.091139 0.54937,3.96962 1.6481,5.635442 1.16962,2.055696 2.69367,3.083544 4.57216,3.083544 0.35443,0 0.72658,-0.03544 1.11645,-0.106329 -1.77215,-0.177215 -3.15443,-1.524051 -4.14683,-4.040506 -0.81519,-1.984809 -1.22279,-4.058227 -1.22279,-6.220252 0,-3.544303 0.58481,-7.2481 1.75443,-11.111391 -2.48101,4.430379 -3.72152,8.683543 -3.72152,12.759492 z m -41.62784,9.569619 q 8.71899,-1.541772 11.43038,-2.179747 8.08101,-1.860759 10.36708,-4.040505 0.21266,-0.212658 0.42532,-0.318988 0.95696,0 1.70127,4.146835 0.58481,2.92405 0.58481,4.891139 0,8.081011 -5.36962,8.081011 -3.66836,0 -11.21772,-1.329113 -7.4962,-1.329114 -11.32405,-1.329114 -4.997469,0 -6.273418,1.435443 -0.212658,0.106329 -0.850633,1.329113 -0.58481,1.27595 -1.116456,1.27595 -2.179746,0 -4.09367,-3.349367 -1.913924,-3.402531 -1.913924,-5.688607 0,-3.243037 1.648101,-4.997467 3.243038,-2.605063 9.1443,-7.602531 12.75949,-10.898733 18.92658,-17.118985 -8.93164,3.61519 -22.860754,3.61519 -2.92405,0 -3.827847,-0.318988 -3.349367,-1.222784 -3.349367,-8.931644 0,-7.974682 2.073418,-7.974682 0.212658,0 0.318987,0.212658 6.220252,4.146835 22.541773,4.146835 6.64556,0 13.07847,-2.924051 -5.26329,4.678481 -17.5443,5.422784 1.54178,0 2.92405,0 8.82532,0 13.71646,-3.136708 1.75443,-2.817721 2.87088,-2.817721 1.59494,0 1.59494,3.030379 0,7.283543 -14.2481,26.475946 -3.4557,4.572151 -9.35696,9.994935 z M 60.628603,72.512357 q 0.212659,14.513922 9.675948,14.513922 4.146835,0 7.602531,-2.870886 1.860759,-1.382278 5.688607,-5.95443 0.106329,-0.212658 0.425316,-0.425316 0.425316,0 0.425316,1.594937 0,2.498733 -1.75443,5.475948 -5.422784,9.037973 -17.863288,9.250632 l -1.16962,0.106329 Q 43.403289,94.52248 43.403289,68.737674 q 0,-5.582278 1.329114,-10.898733 1.594937,-6.645569 4.572151,-9.941771 1.382279,-1.382278 3.881012,-2.020252 2.179747,-0.58481 4.359493,-1.010127 1.222785,-0.425316 1.754431,-0.425316 0.425316,0 0.637974,0.212658 1.116456,-0.531646 4.040506,-0.531646 1.967088,0 3.827847,0.212659 2.711392,-1.222785 4.040506,-1.222785 4.997468,0 8.612657,3.987341 3.668354,3.987341 3.668354,8.984809 0,12.653163 -17.012656,17.544301 -2.498733,0.744304 -4.572151,0.744304 -0.744304,0 -1.382278,-0.106329 7.815189,-0.956962 11.111391,-6.53924 l -0.106329,0.106329 q -5.156962,4.253164 -11.536708,4.678481 z m 0,-1.967089 q 10.420252,-2.711392 10.420252,-14.992403 0,-4.359493 -4.997468,-6.007594 -5.103796,7.974683 -5.422784,20.999997 z M 32.610887,20.416606 c 2.906329,0 4.359493,1.322353 4.359493,3.96706 0,0.544498 -0.425316,7.681318 -1.275949,21.410459 -1.665823,25.241394 -2.498734,37.191648 -2.498734,42.401774 0,3.579746 0.531645,6.627847 1.594936,9.144302 C 33.727342,95.745264 33.071646,94.735138 32.823545,94.309822 32.610887,93.884505 32.2919,92.750328 31.866583,90.907291 31.12228,87.646532 30.838735,82.028811 31.01595,74.054129 30.767849,71.892104 30.608355,67.674383 30.537469,61.400966 c -0.07089,0.744303 -0.35443,3.331645 -0.850632,7.762024 -0.283545,2.091139 -0.425317,4.696202 -0.425317,7.815189 0,2.977215 0.318987,6.946834 0.956962,11.908859 0.283544,2.587341 0.620253,4.288607 1.010126,5.103797 0.496203,1.240506 1.506329,2.534177 3.03038,3.881012 C 26.780508,95.56805 22.385572,91.687037 21.07418,86.22881 20.436205,83.499697 19.886838,78.714887 19.426079,71.874382 19.21342,68.259193 18.894433,61.15676 18.469117,46.72755 c 0,-2.878063 -0.177215,-7.097926 -0.531646,-12.65959 -0.531645,-3.033634 -1.435443,-5.30886 -2.711392,-6.825677 -0.956962,-1.050105 -1.435443,-1.652942 -1.435443,-1.808513 0,-1.750174 2.729114,-3.091974 8.187341,-4.0254 3.686075,-0.661176 7.230379,-0.991764 10.63291,-0.991764 z" />
  </g>
  
  <!-- Status indicator -->
  <circle cx="550" cy="200" r="10" fill="#FFCC00" class="active-light"/>
</svg>